<?xml version="1.0" encoding="UTF-8" standalone="no"?>
<!DOCTYPE svg PUBLIC "-//W3C//DTD SVG 1.1//EN"
 "http://www.w3.org/Graphics/SVG/1.1/DTD/svg11.dtd">
<!-- Generated by graphviz version 2.40.1 (20161225.0304)
 -->
<!-- Title: dependencies Pages: 1 -->
<svg width="1540pt" height="284pt"
 viewBox="0.00 0.00 1540.00 284.00" xmlns="http://www.w3.org/2000/svg" xmlns:xlink="http://www.w3.org/1999/xlink">
<g id="graph0" class="graph" transform="scale(1 1) rotate(0) translate(4 280)">
<title>dependencies</title>
<polygon fill="#ffffff" stroke="transparent" points="-4,4 -4,-280 1536,-280 1536,4 -4,4"/>
<text text-anchor="start" x="745.0091" y="-42.4" font-family="sans-serif" font-weight="bold" font-size="14.00" fill="#000000">Legend</text>
<polygon fill="#ffffb3" stroke="transparent" points="532,-10 532,-30 552,-30 552,-10 532,-10"/>
<text text-anchor="start" x="555.629" y="-15.4" font-family="sans-serif" font-size="14.00" fill="#000000"> &#160;Declarations</text>
<polygon fill="#8dd3c7" stroke="transparent" points="645,-10 645,-30 665,-30 665,-10 645,-10"/>
<text text-anchor="start" x="668.7251" y="-15.4" font-family="sans-serif" font-size="14.00" fill="#000000"> &#160;Module</text>
<polygon fill="#80b1d3" stroke="transparent" points="731,-10 731,-30 751,-30 751,-10 731,-10"/>
<text text-anchor="start" x="754.7812" y="-15.4" font-family="sans-serif" font-size="14.00" fill="#000000"> &#160;Bootstrap</text>
<polygon fill="#fdb462" stroke="transparent" points="828,-10 828,-30 848,-30 848,-10 828,-10"/>
<text text-anchor="start" x="851.6732" y="-15.4" font-family="sans-serif" font-size="14.00" fill="#000000"> &#160;Providers</text>
<polygon fill="#fb8072" stroke="transparent" points="924,-10 924,-30 944,-30 944,-10 924,-10"/>
<text text-anchor="start" x="947.7258" y="-15.4" font-family="sans-serif" font-size="14.00" fill="#000000"> &#160;Exports</text>
<g id="clust1" class="cluster">
<title>cluster_AppModule</title>
<polygon fill="none" stroke="#000000" stroke-dasharray="1,5" points="8,-70 8,-268 1524,-268 1524,-70 8,-70"/>
</g>
<g id="clust2" class="cluster">
<title>cluster_AppModule_declarations</title>
<polygon fill="none" stroke="#000000" points="1394,-78 1394,-130 1516,-130 1516,-78 1394,-78"/>
</g>
<g id="clust4" class="cluster">
<title>cluster_AppModule_imports</title>
<polygon fill="none" stroke="#000000" points="16,-78 16,-130 1386,-130 1386,-78 16,-78"/>
</g>
<g id="clust6" class="cluster">
<title>cluster_AppModule_bootstrap</title>
<polygon fill="none" stroke="#000000" points="689,-208 689,-260 813,-260 813,-208 689,-208"/>
</g>
<!-- AppComponent -->
<g id="node1" class="node">
<title>AppComponent</title>
<polygon fill="#ffffb3" stroke="#000000" points="1507.9399,-122 1402.0601,-122 1402.0601,-86 1507.9399,-86 1507.9399,-122"/>
<text text-anchor="middle" x="1455" y="-99.8" font-family="Times,serif" font-size="14.00" fill="#000000">AppComponent</text>
</g>
<!-- AppModule -->
<g id="node2" class="node">
<title>AppModule</title>
<polygon fill="#8dd3c7" stroke="#000000" points="792.6571,-187 789.6571,-191 768.6571,-191 765.6571,-187 709.3429,-187 709.3429,-151 792.6571,-151 792.6571,-187"/>
<text text-anchor="middle" x="751" y="-164.8" font-family="Times,serif" font-size="14.00" fill="#000000">AppModule</text>
</g>
<!-- AppComponent&#45;&gt;AppModule -->
<g id="edge1" class="edge">
<title>AppComponent&#45;&gt;AppModule</title>
<path fill="none" stroke="#000000" d="M1455,-122.2479C1455,-145.0179 1455,-181 1455,-181 1455,-181 802.6698,-181 802.6698,-181"/>
<polygon fill="#000000" stroke="#000000" points="802.6698,-177.5001 792.6698,-181 802.6697,-184.5001 802.6698,-177.5001"/>
</g>
<!-- AppComponent  -->
<g id="node14" class="node">
<title>AppComponent </title>
<polygon fill="#80b1d3" stroke="#000000" points="805.439,-252 696.561,-252 696.561,-216 805.439,-216 805.439,-252"/>
<text text-anchor="middle" x="751" y="-229.8" font-family="Times,serif" font-size="14.00" fill="#000000">AppComponent </text>
</g>
<!-- AppModule&#45;&gt;AppComponent  -->
<g id="edge13" class="edge">
<title>AppModule&#45;&gt;AppComponent </title>
<path fill="none" stroke="#000000" stroke-dasharray="1,5" d="M751,-187.1061C751,-187.1061 751,-205.991 751,-205.991"/>
<polygon fill="#000000" stroke="#000000" points="747.5001,-205.9909 751,-215.991 754.5001,-205.991 747.5001,-205.9909"/>
</g>
<!-- AboutModule -->
<g id="node3" class="node">
<title>AboutModule</title>
<polygon fill="#8dd3c7" stroke="#000000" points="1378.0481,-122 1375.0481,-126 1354.0481,-126 1351.0481,-122 1283.9519,-122 1283.9519,-86 1378.0481,-86 1378.0481,-122"/>
<text text-anchor="middle" x="1331" y="-99.8" font-family="Times,serif" font-size="14.00" fill="#000000">AboutModule</text>
</g>
<!-- AboutModule&#45;&gt;AppModule -->
<g id="edge2" class="edge">
<title>AboutModule&#45;&gt;AppModule</title>
<path fill="none" stroke="#000000" d="M1331,-122.2843C1331,-143.3211 1331,-175 1331,-175 1331,-175 802.7122,-175 802.7122,-175"/>
<polygon fill="#000000" stroke="#000000" points="802.7122,-171.5001 792.7122,-175 802.7121,-178.5001 802.7122,-171.5001"/>
</g>
<!-- AnalyticsModule -->
<g id="node4" class="node">
<title>AnalyticsModule</title>
<polygon fill="#8dd3c7" stroke="#000000" points="1265.7022,-122 1262.7022,-126 1241.7022,-126 1238.7022,-122 1152.2978,-122 1152.2978,-86 1265.7022,-86 1265.7022,-122"/>
<text text-anchor="middle" x="1209" y="-99.8" font-family="Times,serif" font-size="14.00" fill="#000000">AnalyticsModule</text>
</g>
<!-- AnalyticsModule&#45;&gt;AppModule -->
<g id="edge3" class="edge">
<title>AnalyticsModule&#45;&gt;AppModule</title>
<path fill="none" stroke="#000000" d="M1209,-122.1061C1209,-141.3391 1209,-169 1209,-169 1209,-169 802.8586,-169 802.8586,-169"/>
<polygon fill="#000000" stroke="#000000" points="802.8586,-165.5001 792.8586,-169 802.8586,-172.5001 802.8586,-165.5001"/>
</g>
<!-- AppsModule -->
<g id="node5" class="node">
<title>AppsModule</title>
<polygon fill="#8dd3c7" stroke="#000000" points="1134.6011,-122 1131.6011,-126 1110.6011,-126 1107.6011,-122 1045.3989,-122 1045.3989,-86 1134.6011,-86 1134.6011,-122"/>
<text text-anchor="middle" x="1090" y="-99.8" font-family="Times,serif" font-size="14.00" fill="#000000">AppsModule</text>
</g>
<!-- AppsModule&#45;&gt;AppModule -->
<g id="edge4" class="edge">
<title>AppsModule&#45;&gt;AppModule</title>
<path fill="none" stroke="#000000" d="M1090,-122.0225C1090,-139.3734 1090,-163 1090,-163 1090,-163 802.9081,-163 802.9081,-163"/>
<polygon fill="#000000" stroke="#000000" points="802.9081,-159.5001 792.9081,-163 802.908,-166.5001 802.9081,-159.5001"/>
</g>
<!-- AuditRecordModule -->
<g id="node6" class="node">
<title>AuditRecordModule</title>
<polygon fill="#8dd3c7" stroke="#000000" points="1027.8641,-122 1024.8641,-126 1003.8641,-126 1000.8641,-122 896.1359,-122 896.1359,-86 1027.8641,-86 1027.8641,-122"/>
<text text-anchor="middle" x="962" y="-99.8" font-family="Times,serif" font-size="14.00" fill="#000000">AuditRecordModule</text>
</g>
<!-- AuditRecordModule&#45;&gt;AppModule -->
<g id="edge5" class="edge">
<title>AuditRecordModule&#45;&gt;AppModule</title>
<path fill="none" stroke="#000000" d="M962,-122.2396C962,-137.5706 962,-157 962,-157 962,-157 802.6868,-157 802.6868,-157"/>
<polygon fill="#000000" stroke="#000000" points="802.6868,-153.5001 792.6868,-157 802.6868,-160.5001 802.6868,-153.5001"/>
</g>
<!-- AppRoutingModule -->
<g id="node7" class="node">
<title>AppRoutingModule</title>
<polygon fill="#8dd3c7" stroke="#000000" points="878.2744,-122 875.2744,-126 854.2744,-126 851.2744,-122 749.7256,-122 749.7256,-86 878.2744,-86 878.2744,-122"/>
<text text-anchor="middle" x="814" y="-99.8" font-family="Times,serif" font-size="14.00" fill="#000000">AppRoutingModule</text>
</g>
<!-- AppRoutingModule&#45;&gt;AppModule -->
<g id="edge6" class="edge">
<title>AppRoutingModule&#45;&gt;AppModule</title>
<path fill="none" stroke="#000000" d="M771.2206,-122.1061C771.2206,-122.1061 771.2206,-140.991 771.2206,-140.991"/>
<polygon fill="#000000" stroke="#000000" points="767.7206,-140.9909 771.2206,-150.991 774.7206,-140.991 767.7206,-140.9909"/>
</g>
<!-- JobsModule -->
<g id="node8" class="node">
<title>JobsModule</title>
<polygon fill="#8dd3c7" stroke="#000000" points="731.4401,-122 728.4401,-126 707.4401,-126 704.4401,-122 646.5599,-122 646.5599,-86 731.4401,-86 731.4401,-122"/>
<text text-anchor="middle" x="689" y="-99.8" font-family="Times,serif" font-size="14.00" fill="#000000">JobsModule</text>
</g>
<!-- JobsModule&#45;&gt;AppModule -->
<g id="edge7" class="edge">
<title>JobsModule&#45;&gt;AppModule</title>
<path fill="none" stroke="#000000" d="M720.1957,-122.1061C720.1957,-122.1061 720.1957,-140.991 720.1957,-140.991"/>
<polygon fill="#000000" stroke="#000000" points="716.6957,-140.9909 720.1957,-150.991 723.6957,-140.991 716.6957,-140.9909"/>
</g>
<!-- RuntimeAppsModule -->
<g id="node9" class="node">
<title>RuntimeAppsModule</title>
<polygon fill="#8dd3c7" stroke="#000000" points="628.8244,-122 625.8244,-126 604.8244,-126 601.8244,-122 491.1756,-122 491.1756,-86 628.8244,-86 628.8244,-122"/>
<text text-anchor="middle" x="560" y="-99.8" font-family="Times,serif" font-size="14.00" fill="#000000">RuntimeAppsModule</text>
</g>
<!-- RuntimeAppsModule&#45;&gt;AppModule -->
<g id="edge8" class="edge">
<title>RuntimeAppsModule&#45;&gt;AppModule</title>
<path fill="none" stroke="#000000" d="M560,-122.2396C560,-137.5706 560,-157 560,-157 560,-157 699.0842,-157 699.0842,-157"/>
<polygon fill="#000000" stroke="#000000" points="699.0843,-160.5001 709.0842,-157 699.0842,-153.5001 699.0843,-160.5001"/>
</g>
<!-- SharedModule -->
<g id="node10" class="node">
<title>SharedModule</title>
<polygon fill="#8dd3c7" stroke="#000000" points="473.4231,-122 470.4231,-126 449.4231,-126 446.4231,-122 374.5769,-122 374.5769,-86 473.4231,-86 473.4231,-122"/>
<text text-anchor="middle" x="424" y="-99.8" font-family="Times,serif" font-size="14.00" fill="#000000">SharedModule</text>
</g>
<!-- SharedModule&#45;&gt;AppModule -->
<g id="edge9" class="edge">
<title>SharedModule&#45;&gt;AppModule</title>
<path fill="none" stroke="#000000" d="M424,-122.0225C424,-139.3734 424,-163 424,-163 424,-163 699.2531,-163 699.2531,-163"/>
<polygon fill="#000000" stroke="#000000" points="699.2531,-166.5001 709.2531,-163 699.253,-159.5001 699.2531,-166.5001"/>
</g>
<!-- StreamsModule -->
<g id="node11" class="node">
<title>StreamsModule</title>
<polygon fill="#8dd3c7" stroke="#000000" points="356.1486,-122 353.1486,-126 332.1486,-126 329.1486,-122 251.8514,-122 251.8514,-86 356.1486,-86 356.1486,-122"/>
<text text-anchor="middle" x="304" y="-99.8" font-family="Times,serif" font-size="14.00" fill="#000000">StreamsModule</text>
</g>
<!-- StreamsModule&#45;&gt;AppModule -->
<g id="edge10" class="edge">
<title>StreamsModule&#45;&gt;AppModule</title>
<path fill="none" stroke="#000000" d="M304,-122.1061C304,-141.3391 304,-169 304,-169 304,-169 698.9473,-169 698.9473,-169"/>
<polygon fill="#000000" stroke="#000000" points="698.9474,-172.5001 708.9473,-169 698.9473,-165.5001 698.9474,-172.5001"/>
</g>
<!-- TasksModule -->
<g id="node12" class="node">
<title>TasksModule</title>
<polygon fill="#8dd3c7" stroke="#000000" points="234.2064,-122 231.2064,-126 210.2064,-126 207.2064,-122 141.7936,-122 141.7936,-86 234.2064,-86 234.2064,-122"/>
<text text-anchor="middle" x="188" y="-99.8" font-family="Times,serif" font-size="14.00" fill="#000000">TasksModule</text>
</g>
<!-- TasksModule&#45;&gt;AppModule -->
<g id="edge11" class="edge">
<title>TasksModule&#45;&gt;AppModule</title>
<path fill="none" stroke="#000000" d="M188,-122.2843C188,-143.3211 188,-175 188,-175 188,-175 699.1435,-175 699.1435,-175"/>
<polygon fill="#000000" stroke="#000000" points="699.1435,-178.5001 709.1435,-175 699.1434,-171.5001 699.1435,-178.5001"/>
</g>
<!-- LayoutModule -->
<g id="node13" class="node">
<title>LayoutModule</title>
<polygon fill="#8dd3c7" stroke="#000000" points="123.7078,-122 120.7078,-126 99.7078,-126 96.7078,-122 24.2922,-122 24.2922,-86 123.7078,-86 123.7078,-122"/>
<text text-anchor="middle" x="74" y="-99.8" font-family="Times,serif" font-size="14.00" fill="#000000">LayoutModule</text>
</g>
<!-- LayoutModule&#45;&gt;AppModule -->
<g id="edge12" class="edge">
<title>LayoutModule&#45;&gt;AppModule</title>
<path fill="none" stroke="#000000" d="M74,-122.2479C74,-145.0179 74,-181 74,-181 74,-181 699.1615,-181 699.1615,-181"/>
<polygon fill="#000000" stroke="#000000" points="699.1616,-184.5001 709.1615,-181 699.1615,-177.5001 699.1616,-184.5001"/>
</g>
</g>
</svg>
